<?xml version="1.0" encoding="utf-8"?>
<svg xmlns="http://www.w3.org/2000/svg" viewBox="58.5188 -0.3772 464.2894 374.3725" width="464.289px" height="374.373px" preserveAspectRatio="none">
  <g transform="matrix(0.10000000149011612, 0, 0, -0.10000000149011612, -130.83653259277344, 392.3090820312501)" fill="#000000" stroke="none" id="object-0">
    <g transform="matrix(1, 0, 0, 1, -16.04706, -16.249969)">
      <path d="M 2861.31 3927.63 C 2795.65 3902.61 2717.48 3835.39 2703.42 3791.61 C 2695.6 3768.18 2683.1 3775.99 2631.5 3832.26 C 2556.46 3913.57 2484.54 3941.7 2379.81 3929.18 C 2292.27 3918.24 2209.4 3865.09 2162.5 3786.93 C 2121.85 3719.7 2123.42 3588.39 2165.63 3499.28 C 2203.15 3422.68 2343.85 3275.72 2529.88 3116.28 C 2711.23 2961.51 2714.37 2963.07 2956.67 3202.24 C 3234.94 3478.95 3294.35 3613.41 3206.79 3779.11 C 3136.44 3911.99 2989.5 3974.53 2861.31 3927.63 Z" style="stroke-width: 1; fill: rgb(113, 137, 255);"/>
      <path d="M 4576.27 3644.68 C 4340.21 3593.09 4113.52 3417.99 3938.44 3153.78 C 3849.33 3019.34 3841.52 3013.09 3788.37 3011.51 C 3714.88 3011.51 3667.98 2974.01 3582 2842.68 C 3485.08 2697.3 3424.1 2569.11 3274.02 2206.41 C 2923.85 1355.96 2750.31 983.901 2589.29 736.894 C 2443.9 511.781 2414.21 507.091 2414.21 704.066 C 2414.21 890.101 2554.9 1496.67 2773.75 2254.88 C 2825.35 2434.66 2867.56 2603.49 2867.56 2628.51 C 2867.56 2664.47 2851.94 2692.61 2809.73 2733.24 C 2697.17 2842.68 2556.46 2869.26 2429.83 2805.16 L 2359.48 2769.2 L 2300.08 2542.53 C 2121.85 1862.48 1974.9 1260.61 1945.2 1080.82 C 1901.43 830.703 1898.3 613.397 1934.27 493.021 C 1965.53 388.283 2065.58 267.907 2156.25 227.261 C 2231.29 192.869 2364.17 189.742 2437.65 221.008 C 2626.81 299.174 2897.27 702.505 3166.15 1304.38 L 3266.21 1527.93 L 3275.6 1312.19 C 3283.4 1158.99 3295.92 1066.75 3319.37 993.281 C 3410.04 705.628 3669.54 524.287 4024.42 499.274 C 4313.64 478.951 4591.89 613.397 4898.31 918.242 C 5009.31 1029.23 5070.29 1107.4 5248.5 1362.22 C 5264.14 1384.11 5309.47 1404.43 5387.64 1421.63 C 5529.89 1456.03 5808.17 1588.9 5961.38 1698.34 C 6261.52 1912.52 6578.89 2297.09 6550.75 2411.2 C 6544.5 2433.09 6522.6 2458.11 6500.72 2467.49 C 6453.81 2489.38 6452.26 2487.82 6283.42 2268.95 C 6175.55 2128.24 6034.84 1998.48 5842.56 1859.36 C 5706.55 1763.99 5404.83 1595.15 5390.76 1607.65 C 5387.64 1612.36 5406.39 1663.94 5432.97 1723.36 C 5640.89 2178.28 5714.37 2669.16 5626.83 3003.72 C 5561.15 3258.53 5395.44 3475.82 5195.34 3571.2 C 5087.48 3622.78 4870.17 3669.68 4745.1 3666.55 C 4706.04 3666.55 4629.43 3655.61 4576.27 3644.68 Z M 5099.98 3310.11 C 5168.76 3261.66 5240.68 3145.97 5279.76 3019.34 C 5307.9 2930.24 5314.17 2870.82 5314.17 2706.68 C 5314.17 2401.82 5246.93 2136.07 5071.84 1742.11 C 4990.55 1557.64 4988.98 1557.64 4935.84 1557.64 C 4859.22 1557.64 4704.46 1599.85 4613.8 1645.18 C 4504.35 1701.46 4407.43 1796.83 4357.4 1900.01 C 4316.76 1981.3 4313.64 2000.06 4313.64 2190.78 C 4313.64 2336.16 4321.44 2422.14 4340.21 2492.51 C 4432.44 2822.36 4632.55 3149.09 4834.22 3292.93 C 4912.39 3350.76 4931.14 3357.01 4988.98 3350.76 C 5023.38 3347.64 5074.97 3328.88 5099.98 3310.11 Z M 4246.42 1607.65 C 4291.75 1573.27 4373.04 1523.24 4426.18 1496.67 C 4529.37 1445.09 4770.13 1370.04 4831.09 1370.04 C 4851.42 1370.04 4868.6 1365.35 4868.6 1360.65 C 4868.6 1335.64 4676.33 1098.03 4571.58 994.841 C 4387.12 811.941 4230.79 746.275 4093.21 799.437 C 3950.94 852.588 3886.85 1012.04 3905.6 1262.17 C 3913.42 1393.49 3979.08 1737.41 4010.35 1818.71 C 4024.42 1856.23 4025.98 1856.23 4094.76 1763.99 C 4132.29 1712.41 4201.08 1642.06 4246.42 1607.65 Z" style="stroke-width: 1; fill: rgb(113, 137, 255);"/>
    </g>
  </g>
</svg>