<?xml version="1.0" encoding="utf-8"?>
<svg version="1.0" xmlns="http://www.w3.org/2000/svg" width="843.000000pt" height="411.000000pt" viewBox="0 0 843.000000 411.000000" preserveAspectRatio="xMidYMid meet">
  <g transform="translate(0.000000,411.000000) scale(0.100000,-0.100000)" fill="#000000" stroke="none">
    <path d="M756 3916 c-42 -16 -92 -59 -101 -87 -5 -15 -13 -10 -46 26 -48 52 -94 70 -161 62 -56 -7 -109 -41 -139 -91 -26 -43 -25 -127 2 -184 24 -49 114 -143 233 -245 116 -99 118 -98 273 55 178 177 216 263 160 369 -45 85 -139 125 -221 95z" fill="#FFFFFF"/>
    <path d="M1853 3735 c-151 -33 -296 -145 -408 -314 -57 -86 -62 -90 -96 -91 -47 0 -77 -24 -132 -108 -62 -93 -101 -175 -197 -407 -224 -544 -335 -782 -438 -940 -93 -144 -112 -147 -112 -21 0 119 90 507 230 992 33 115 60 223 60 239 0 23 -10 41 -37 67 -72 70 -162 87 -243 46 l-45 -23 -38 -145 c-114 -435 -208 -820 -227 -935 -28 -160 -30 -299 -7 -376 20 -67 84 -144 142 -170 48 -22 133 -24 180 -4 121 50 294 308 466 693 l64 143 6 -138 c5 -98 13 -157 28 -204 58 -184 224 -300 451 -316 185 -13 363 73 559 268 71 71 110 121 224 284 10 14 39 27 89 38 91 22 269 107 367 177 192 137 395 383 377 456 -4 14 -18 30 -32 36 -30 14 -31 13 -139 -127 -69 -90 -159 -173 -282 -262 -87 -61 -280 -169 -289 -161 -2 3 10 36 27 74 133 291 180 605 124 819 -42 163 -148 302 -276 363 -69 33 -208 63 -288 61 -25 0 -74 -7 -108 -14z m335 -214 c44 -31 90 -105 115 -186 18 -57 22 -95 22 -200 0 -195 -43 -365 -155 -617 -52 -118 -53 -118 -87 -118 -49 0 -148 27 -206 56 -70 36 -132 97 -164 163 -26 52 -28 64 -28 186 0 93 5 148 17 193 59 211 187 420 316 512 50 37 62 41 99 37 22 -2 55 -14 71 -26z m-546 -1089 c29 -22 81 -54 115 -71 66 -33 220 -81 259 -81 13 0 24 -3 24 -6 0 -16 -123 -168 -190 -234 -118 -117 -218 -159 -306 -125 -91 34 -132 136 -120 296 5 84 47 304 67 356 9 24 10 24 54 -35 24 -33 68 -78 97 -100z" fill="#FFFFFF"/>
    <path d="M6826 3578 c-8 -13 -27 -66 -41 -118 -15 -52 -50 -144 -77 -205 -122 -272 -131 -308 -100 -397 l20 -58 -31 0 c-181 -1 -267 -274 -158 -500 11 -22 16 -42 13 -44 -20 -12 -273 -67 -370 -80 -256 -36 -584 -30 -891 15 -249 36 -421 76 -798 185 -450 130 -671 171 -859 160 -175 -10 -308 -46 -464 -127 -164 -84 -290 -194 -290 -251 0 -28 29 -34 64 -13 248 147 445 205 696 205 201 0 361 -30 805 -150 877 -237 1447 -270 1968 -114 45 13 111 36 147 49 l66 25 39 -20 c43 -22 100 -25 159 -9 35 10 237 140 329 212 21 16 40 27 42 25 3 -2 -14 -35 -36 -74 -88 -149 -118 -224 -89 -224 15 0 144 125 186 180 21 27 39 48 41 46 6 -6 -23 -116 -63 -238 -85 -265 -11 -393 226 -393 174 1 305 122 302 281 -1 60 0 64 18 54 31 -17 121 -11 169 10 24 11 76 51 115 88 109 103 153 136 259 192 128 68 152 103 104 148 -52 49 -223 95 -402 108 -81 5 -410 -17 -447 -31 -7 -3 -34 -9 -61 -14 l-47 -8 6 36 c8 43 20 61 43 61 26 0 128 53 111 57 -9 2 -47 -8 -84 -22 -38 -14 -70 -24 -72 -22 -2 2 2 22 10 43 19 56 28 117 18 132 -9 13 -15 -4 -42 -105 -9 -35 -18 -47 -51 -64 -23 -11 -42 -19 -44 -17 -2 2 -15 77 -29 168 -18 113 -39 203 -68 285 -41 120 -153 378 -203 467 -47 84 -109 113 -139 66z m177 -365 c53 -112 77 -176 77 -207 -1 -35 -75 56 -120 148 -37 74 -39 84 -30 119 6 20 14 37 19 37 4 0 28 -44 54 -97z m-68 -117 c42 -79 48 -97 37 -108 -11 -11 -20 -6 -52 30 -56 62 -81 118 -68 148 6 13 16 24 22 24 7 0 34 -42 61 -94z m-88 -88 c53 -55 103 -135 103 -165 0 -13 -4 -23 -8 -23 -5 0 -45 38 -90 84 -58 59 -82 91 -82 108 0 52 24 50 77 -4z m27 -194 c124 -118 236 -240 236 -257 0 -19 -139 72 -262 171 -71 57 -108 115 -108 170 0 18 3 32 6 32 3 0 61 -52 128 -116z m202 91 c19 -14 39 -35 45 -46 19 -37 59 -183 59 -219 0 -68 -13 -64 -78 22 -64 86 -119 217 -106 251 9 24 42 21 80 -8z m-266 -253 c99 -57 109 -72 48 -72 -44 0 -238 75 -238 92 0 5 10 13 23 18 46 18 83 10 167 -38z m-125 -58 c100 -48 73 -80 -41 -49 -74 20 -112 49 -92 72 16 20 57 13 133 -23z m241 -68 c22 -8 62 -24 89 -36 47 -22 49 -23 25 -30 -14 -5 -68 -8 -120 -9 -106 -1 -144 13 -138 52 5 35 78 47 144 23z m-233 -36 c68 -20 30 -47 -69 -49 -41 -1 -55 3 -73 23 -34 36 -19 50 48 42 31 -3 73 -11 94 -16z m1007 -46 c22 -9 45 -25 51 -36 18 -33 -10 -50 -88 -55 -57 -5 -85 0 -173 27 -117 36 -133 45 -99 56 80 25 254 30 309 8z m306 7 c27 -5 63 -15 79 -21 l30 -12 -28 -24 c-15 -13 -40 -24 -54 -24 -52 0 -233 63 -233 81 0 12 144 11 206 0z m-959 -57 c-21 -14 -85 -50 -142 -79 -176 -90 -257 -113 -284 -81 -15 18 -14 19 170 92 239 94 329 118 256 68z m-269 0 c12 -4 22 -10 22 -14 0 -7 -126 -61 -176 -75 -16 -4 -28 1 -43 21 -12 15 -20 32 -18 38 8 25 157 45 215 30z m680 -59 c84 -39 322 -185 322 -197 0 -20 -50 -31 -88 -20 -59 18 -359 250 -324 252 7 0 48 -16 90 -35z m475 5 c56 -21 58 -23 41 -41 -22 -24 -60 -24 -117 0 -50 22 -62 34 -53 58 8 19 46 14 129 -17z m-143 -73 c53 -26 65 -37 65 -56 0 -48 -27 -48 -101 0 -107 68 -117 76 -109 89 11 18 70 4 145 -33z m-457 -3 c71 -80 103 -163 78 -203 -15 -24 -40 -4 -65 51 -22 48 -59 188 -49 188 2 0 18 -16 36 -36z m-82 -309 c-6 -71 -15 -133 -20 -138 -16 -16 -41 36 -41 88 0 60 35 291 53 349 12 40 12 37 15 -64 2 -58 -2 -163 -7 -235z m222 203 c57 -53 97 -111 97 -139 0 -16 -4 -29 -9 -29 -16 0 -96 111 -108 150 -6 22 -10 40 -8 40 2 0 15 -10 28 -22z m-123 -264 c9 -54 10 -78 2 -86 -16 -16 -59 -1 -65 24 -6 22 -1 112 10 178 l6 35 17 -38 c10 -22 23 -72 30 -113z m155 92 c39 -57 41 -86 6 -86 -23 0 -77 100 -67 125 9 25 22 17 61 -39z m-73 -60 c17 -36 28 -71 25 -80 -11 -29 -37 -17 -57 27 -21 45 -27 117 -10 117 6 0 24 -29 42 -64z" fill="#FFFFFF"/>
    <path d="M1187 1526 c-80 -22 -117 -73 -117 -160 0 -97 37 -135 170 -176 53 -16 104 -38 113 -48 24 -26 22 -85 -3 -107 -12 -11 -41 -20 -73 -23 -46 -4 -57 -1 -84 22 -17 15 -35 40 -38 57 -5 21 -11 28 -23 25 -10 -2 -32 -8 -50 -11 -31 -6 -33 -9 -26 -38 22 -102 88 -147 217 -147 133 0 206 63 207 176 0 92 -57 149 -182 180 -50 12 -81 26 -100 45 -33 33 -35 57 -7 93 17 22 28 26 70 26 42 0 55 -5 78 -28 15 -15 30 -33 32 -41 4 -10 16 -11 52 -6 55 8 58 20 24 80 -42 74 -157 110 -260 81z" fill="#ffffff"/>
    <path d="M4497 1526 c-66 -18 -116 -62 -152 -131 -28 -55 -30 -66 -30 -169 0 -92 4 -119 21 -157 45 -97 132 -149 247 -149 81 0 130 17 181 61 67 59 91 123 91 244 0 83 -4 109 -23 151 -27 60 -82 117 -135 139 -53 22 -143 27 -200 11z m170 -106 c55 -33 78 -91 78 -195 0 -76 -4 -96 -23 -130 -36 -62 -67 -80 -139 -80 -72 0 -105 19 -137 81 -28 53 -34 166 -12 232 16 47 54 93 86 105 36 13 116 6 147 -13z" fill="#ffffff"/>
    <path d="M842 1228 l3 -303 50 0 50 0 0 300 0 300 -53 3 -52 3 2 -303z" fill="#ffffff"/>
    <path d="M1745 1518 c-2 -7 -51 -141 -109 -298 -57 -157 -102 -289 -99 -293 3 -4 27 -7 55 -5 l50 3 27 70 27 70 109 0 110 0 25 -70 25 -70 49 -3 c27 -2 52 0 56 5 4 4 -41 141 -100 303 l-108 295 -56 3 c-39 2 -58 -1 -61 -10z m101 -230 c20 -62 39 -117 41 -123 2 -6 -29 -10 -82 -10 -53 0 -83 4 -81 10 3 6 22 61 42 123 21 61 39 112 40 112 1 0 19 -51 40 -112z" fill="#ffffff"/>
    <path d="M2162 1228 l3 -303 145 0 c132 1 149 3 194 24 39 19 52 33 68 69 36 81 10 182 -53 205 -34 13 -37 23 -10 30 11 3 29 20 41 38 17 27 20 46 17 93 -3 53 -7 62 -39 92 -49 44 -91 54 -241 54 l-127 0 2 -302z m278 192 c47 -47 32 -115 -30 -137 -19 -7 -61 -12 -92 -12 l-58 -1 0 85 0 85 80 0 c66 0 83 -3 100 -20z m-1 -245 c32 -16 41 -33 41 -75 0 -68 -35 -90 -145 -90 l-75 0 0 90 0 90 75 0 c47 0 87 -6 104 -15z" fill="#ffffff"/>
    <path d="M2695 1517 c-3 -7 -4 -143 -3 -302 l3 -290 180 0 180 0 3 43 3 42 -130 0 -131 0 0 90 0 90 121 0 120 0 -3 43 -3 42 -117 3 -118 3 0 79 0 80 125 0 125 0 0 45 0 45 -175 0 c-132 0 -177 -3 -180 -13z" fill="#ffffff"/>
    <path d="M3162 1228 l3 -303 160 0 160 0 0 45 0 45 -112 3 -113 3 0 254 0 255 -50 0 -50 0 2 -302z" fill="#ffffff"/>
    <path d="M3736 1521 c-18 -29 -215 -584 -210 -592 3 -6 28 -9 55 -7 49 3 49 3 68 53 10 28 22 60 25 72 7 21 11 22 118 20 l111 -2 21 -60 c12 -33 25 -66 29 -73 9 -14 93 -17 101 -3 3 5 -42 142 -101 305 l-107 296 -52 0 c-29 0 -55 -4 -58 -9z m98 -238 c20 -60 36 -112 36 -118 0 -6 -33 -10 -80 -10 -44 0 -80 2 -80 4 0 14 76 231 81 231 3 0 22 -48 43 -107z" fill="#ffffff"/>
    <path d="M4955 1518 c-3 -7 -4 -144 -3 -303 l3 -290 160 0 160 0 3 48 3 47 -110 0 -111 0 -2 253 -3 252 -48 3 c-32 2 -49 -1 -52 -10z" fill="#ffffff"/>
    <path d="M5352 1228 l3 -303 45 0 45 0 3 303 2 302 -50 0 -50 0 2 -302z" fill="#ffffff"/>
    <path d="M5540 1522 c0 -4 42 -138 93 -297 101 -310 97 -303 169 -304 27 -1 40 4 48 19 12 23 210 571 210 582 0 5 -24 8 -54 8 l-54 0 -77 -231 c-48 -142 -80 -226 -85 -218 -4 8 -33 102 -64 209 -76 261 -64 240 -131 240 -30 0 -55 -4 -55 -8z" fill="#ffffff"/>
    <path d="M6132 1228 l3 -303 180 0 180 0 3 43 3 42 -130 0 -131 0 0 90 0 90 121 0 120 0 -3 43 -3 42 -117 3 -118 3 0 79 0 80 131 0 130 0 -3 43 -3 42 -183 3 -182 2 2 -302z" fill="#ffffff"/>
    <path d="M6610 1231 l0 -299 28 -6 c15 -3 36 -4 47 -2 19 3 20 12 23 304 l2 302 -50 0 -50 0 0 -299z" fill="#ffffff"/>
    <path d="M6835 1519 c-4 -5 -5 -141 -3 -300 3 -286 3 -290 24 -295 12 -3 35 -4 50 -2 l29 3 3 123 3 122 32 0 c30 -1 36 -7 101 -116 38 -63 77 -119 87 -124 20 -11 109 -11 109 0 0 4 -34 60 -75 125 -42 64 -74 118 -73 119 88 37 128 89 128 169 0 88 -48 154 -128 177 -49 13 -279 13 -287 -1z m280 -104 c34 -33 34 -93 1 -132 -21 -25 -31 -28 -100 -31 l-76 -4 0 96 0 96 75 0 c67 0 79 -3 100 -25z" fill="#ffffff"/>
    <path d="M7462 1313 c-135 -365 -141 -382 -134 -386 4 -2 29 -3 57 -3 l49 1 26 70 25 70 111 2 110 2 24 -72 25 -72 53 -1 c29 -1 54 1 56 5 2 3 -45 139 -104 301 l-107 295 -55 3 -55 3 -81 -218z m174 -25 c20 -62 39 -117 41 -123 2 -6 -27 -9 -77 -8 -44 1 -80 5 -80 10 0 9 73 233 76 233 1 0 19 -51 40 -112z" fill="#ffffff"/>
    <path d="M4444 716 c-96 -43 -109 -183 -22 -236 18 -11 58 -27 88 -36 81 -23 100 -38 100 -79 0 -68 -96 -91 -151 -36 -16 16 -29 37 -29 45 0 18 -45 22 -69 7 -12 -8 -13 -16 -3 -49 34 -113 208 -149 304 -63 27 24 32 36 36 88 4 56 2 62 -27 96 -24 27 -51 42 -110 62 -83 27 -111 48 -111 82 0 52 91 73 134 30 13 -13 25 -28 27 -35 6 -18 79 -3 79 17 0 24 -36 78 -65 97 -34 22 -141 29 -181 10z" fill="#ffffff"/>
    <path d="M5086 715 c-193 -69 -193 -413 1 -479 78 -27 144 -16 195 31 l26 25 4 -28 c2 -23 9 -30 31 -32 l27 -3 0 131 0 131 -102 -3 c-102 -3 -102 -3 -103 -28 0 -24 4 -25 65 -30 58 -4 65 -7 62 -25 -9 -52 -73 -105 -127 -105 -45 0 -94 35 -115 83 -40 86 -14 206 52 247 61 37 133 22 169 -37 18 -28 26 -33 60 -33 38 0 39 1 33 28 -9 38 -29 74 -51 94 -51 46 -150 61 -227 33z" fill="#ffffff"/>
    <path d="M1860 475 l0 -245 40 0 40 0 0 173 0 172 27 -45 c14 -25 62 -102 105 -173 l80 -127 44 0 44 0 0 245 0 245 -40 0 -40 0 0 -176 0 -177 -106 177 -105 176 -45 0 -44 0 0 -245z" fill="#ffffff"/>
    <path d="M2470 717 c0 -3 -36 -108 -80 -233 -44 -126 -80 -234 -80 -241 0 -9 15 -13 44 -13 l44 0 19 58 20 57 85 3 85 3 18 -61 18 -60 49 0 c47 0 49 1 42 23 -4 12 -42 121 -84 242 l-77 220 -52 3 c-28 2 -51 1 -51 -1z m57 -295 c-33 -2 -61 -1 -63 1 -2 2 10 46 28 98 l31 94 32 -95 32 -95 -60 -3z" fill="#ffffff"/>
    <path d="M2802 478 l3 -243 43 -3 42 -3 0 245 0 246 -45 0 -45 0 2 -242z" fill="#ffffff"/>
    <path d="M3000 475 l0 -246 133 3 132 3 0 30 0 30 -92 3 -93 3 0 209 0 210 -40 0 -40 0 0 -245z" fill="#ffffff"/>
    <path d="M3500 475 l0 -245 103 0 c122 0 166 11 213 52 103 91 111 281 16 376 -49 49 -97 62 -226 62 l-106 0 0 -245z m246 150 c41 -27 67 -98 61 -165 -9 -108 -50 -148 -159 -157 l-58 -6 0 178 0 178 65 -5 c36 -3 77 -13 91 -23z" fill="#ffffff"/>
    <path d="M3984 707 c-2 -7 -3 -116 -2 -242 l3 -230 148 -3 147 -3 0 36 0 35 -105 0 -105 0 0 75 0 75 95 0 95 0 0 35 0 35 -95 0 -95 0 0 65 0 65 105 0 105 0 0 35 0 35 -145 0 c-109 0 -147 -3 -151 -13z" fill="#ffffff"/>
    <path d="M4784 707 c-2 -7 -3 -116 -2 -242 l3 -230 43 -3 42 -3 0 245 0 246 -40 0 c-24 0 -43 -5 -46 -13z" fill="#ffffff"/>
    <path d="M5467 713 c-4 -3 -7 -114 -7 -245 l0 -238 46 0 46 0 -4 174 c-1 96 -1 173 0 171 2 -2 50 -79 105 -172 l102 -168 48 -3 47 -3 0 246 0 246 -42 -3 -43 -3 1 -169 c2 -198 14 -200 -119 22 l-91 152 -41 0 c-23 0 -45 -3 -48 -7z" fill="#ffffff"/>
    <path d="M5940 475 l0 -246 148 3 147 3 0 30 0 30 -102 3 -103 3 0 69 0 69 93 3 92 3 3 38 3 37 -95 0 -96 0 0 65 0 65 100 0 100 0 0 35 0 35 -145 0 -145 0 0 -245z" fill="#ffffff"/>
    <path d="M6322 478 l3 -243 40 0 40 0 3 98 3 97 27 0 c23 -1 35 -14 86 -100 l60 -100 48 0 c26 0 48 2 48 5 0 3 -27 49 -61 101 -33 53 -59 97 -57 98 2 1 15 7 31 14 65 28 89 137 44 203 -37 56 -76 69 -205 69 l-112 0 2 -242z m222 151 c33 -26 36 -79 6 -109 -16 -16 -33 -20 -80 -20 l-60 0 0 75 0 75 54 0 c39 0 60 -6 80 -21z" fill="#ffffff"/>
  </g>
</svg>