<?xml version="1.0" encoding="utf-8"?>
<svg version="1.0" xmlns="http://www.w3.org/2000/svg" width="800.000000pt" height="746.000000pt" viewBox="0 0 800.000000 746.000000" preserveAspectRatio="xMidYMid meet">
  <g transform="translate(0.000000,746.000000) scale(0.100000,-0.100000)" fill="white" stroke="none">
    <path d="M1915 7246 c-112 -28 -233 -103 -321 -199 -132 -144 -403 -602 -599 -1012 -100 -208 -120 -271 -119 -370 0 -92 20 -142 78 -192 34 -31 130 -73 166 -73 12 0 34 27 71 88 405 678 925 1215 1344 1388 44 18 81 37 83 42 4 12 -134 142 -210 198 -161 118 -345 167 -493 130z"/>
    <path d="M747 7123 c-30 -54 -115 -208 -190 -343 -74 -135 -162 -294 -196 -355 -33 -60 -61 -114 -61 -120 0 -15 350 -209 360 -199 11 12 501 916 503 929 2 10 -328 184 -350 185 -7 0 -36 -44 -66 -97z"/>
    <path d="M2766 6298 c-7 -23 -39 -448 -35 -453 3 -2 59 -20 125 -39 65 -19 184 -59 264 -89 683 -255 1425 -692 2131 -1258 l146 -117 334 -10 c192 -6 338 -7 343 -2 12 12 -95 130 -249 274 -750 696 -1732 1263 -2849 1642 -104 35 -193 64 -198 64 -5 0 -10 -6 -12 -12z"/>
    <path d="M2099 5943 c-235 -243 -418 -504 -580 -826 -199 -395 -315 -782 -371 -1237 -33 -259 -32 -737 1 -1000 84 -680 327 -1296 716 -1816 157 -209 371 -428 585 -600 101 -80 342 -246 348 -239 3 2 -39 50 -93 107 -277 293 -522 709 -659 1120 -178 532 -198 996 -62 1412 39 119 114 273 182 372 98 144 264 305 412 400 34 21 62 44 62 51 0 6 -26 47 -59 90 -340 453 -515 1002 -498 1568 8 247 42 471 98 634 11 30 18 56 16 58 -2 2 -46 -41 -98 -94z" fill="#00801a"/>
    <path d="M3060 5145 c-212 -48 -382 -215 -426 -417 -43 -201 10 -384 150 -524 114 -114 237 -164 403 -164 297 0 537 223 559 520 19 251 -143 490 -386 569 -86 28 -216 35 -300 16z" fill="#00801a"/>
    <path d="M6812 4628 c-41 -415 -189 -806 -426 -1125 -145 -197 -361 -398 -550 -514 l-85 -52 66 -81 c137 -167 226 -266 245 -272 23 -7 10 -16 223 165 337 287 609 582 829 900 146 212 176 285 176 430 0 171 -87 338 -266 511 -82 80 -181 160 -196 160 -2 0 -10 -55 -16 -122z"/>
    <path d="M4795 4099 c-1214 -73 -2029 -458 -2358 -1114 -123 -246 -175 -511 -164 -830 7 -190 31 -316 88 -461 219 -561 851 -966 1809 -1158 236 -48 600 -94 660 -84 21 4 15 9 -40 33 -760 340 -1173 763 -1297 1327 -25 117 -25 416 0 543 54 266 130 408 322 600 283 284 710 531 1308 757 249 93 727 234 987 289 58 13 109 26 113 29 16 14 -369 53 -678 70 -218 11 -546 11 -750 -1z"/>
    <path d="M7370 3503 c-160 -301 -415 -611 -656 -799 -32 -26 -58 -51 -56 -57 5 -16 265 -337 273 -337 6 0 625 743 748 897 31 39 33 44 19 60 -8 10 -70 86 -138 168 -68 83 -126 154 -130 158 -4 5 -31 -36 -60 -90z"/>
  </g>
</svg>