<svg xmlns="http://www.w3.org/2000/svg" version="1.1" xmlns:xlink="http://www.w3.org/1999/xlink" xmlns:svgjs="http://svgjs.dev/svgjs" width="1440" height="560" preserveAspectRatio="none" viewBox="0 0 1440 560"><g mask="url(&quot;#SvgjsMask1001&quot;)" fill="none"><rect width="1440" height="560" x="0" y="0" fill="rgba(17, 29, 74, 1)"></rect><path d="M0,368.357C68.089,370.148,119.966,312.565,178.614,277.928C239.873,241.749,319.954,224.284,351.729,160.629C383.641,96.699,353.664,21.319,341.888,-49.156C330.385,-118,332.279,-195.699,283.798,-245.912C235.797,-295.628,156.997,-289.392,90.796,-309.221C24.151,-329.183,-39.041,-379.693,-106.535,-362.825C-174.386,-345.868,-211.853,-276.096,-256.651,-222.389C-300.599,-169.701,-356.329,-120.545,-365.356,-52.53C-374.355,15.274,-339.812,80.463,-304.628,139.119C-272.264,193.075,-222.951,230.859,-172.677,268.691C-118.477,309.477,-67.809,366.574,0,368.357" fill="#0e173b"></path><path d="M1440 1235.0259999999998C1562.064 1211.342 1641.313 1101.3600000000001 1736.498 1021.3589999999999 1818.93 952.077 1904.719 889.827 1960.386 797.652 2021.237 696.894 2087.897 585.756 2069.817 469.446 2051.7780000000002 353.401 1958.344 263.447 1866.054 190.822 1784.3519999999999 126.529 1674.1399999999999 127.56 1579.811 83.84899999999999 1463.172 29.799999999999955 1373.975-118.45899999999995 1247.427-95.84500000000003 1123.653-73.72699999999998 1076.057 80.024 1008.344 185.96800000000002 949.635 277.824 891.814 371.102 879.734 479.446 867.881 585.755 913.723 684.406 941.246 787.773 974.823 913.877 961.87 1065.684 1059.026 1152.807 1157.747 1241.3339999999998 1309.827 1260.283 1440 1235.0259999999998" fill="#142359"></path></g><defs><mask id="SvgjsMask1001"><rect width="1440" height="560" fill="#ffffff"></rect></mask></defs></svg>